<svg width="26" height="27" viewBox="0 0 26 27" fill="none" xmlns="http://www.w3.org/2000/svg">
<g id="Link">
<path id="Vector" d="M21.2063 22.8125H4.79378C4.59386 22.8116 4.40111 22.7378 4.25158 22.6051C4.10205 22.4724 4.00596 22.2898 3.98128 22.0914L2.5391 9.09141C2.52627 8.97814 2.53742 8.86344 2.57182 8.75476C2.60623 8.64609 2.66312 8.54586 2.73879 8.46061C2.81446 8.37536 2.90723 8.30699 3.01105 8.25993C3.11488 8.21288 3.22745 8.1882 3.34144 8.1875H22.6586C22.7726 8.18822 22.8852 8.21292 22.989 8.25998C23.0928 8.30704 23.1856 8.37541 23.2612 8.46066C23.3369 8.5459 23.3938 8.64612 23.4282 8.75478C23.4626 8.86345 23.4738 8.97814 23.461 9.09141L22.0188 22.0914C21.9941 22.2898 21.898 22.4724 21.7485 22.6051C21.5989 22.7378 21.4062 22.8115 21.2063 22.8125Z" stroke="black" stroke-width="1.35417" stroke-linecap="round" stroke-linejoin="round"/>
<path id="Vector_2" d="M8.9375 11.4375V8.1875C8.9375 7.11006 9.36551 6.07675 10.1274 5.31488C10.8892 4.55301 11.9226 4.125 13 4.125C14.0774 4.125 15.1108 4.55301 15.8726 5.31488C16.6345 6.07675 17.0625 7.11006 17.0625 8.1875V11.4375" stroke="black" stroke-width="1.35417" stroke-linecap="round" stroke-linejoin="round"/>
<path id="Vector_3" d="M13 17.5312C14.1218 17.5312 15.0312 16.6218 15.0312 15.5C15.0312 14.3782 14.1218 13.4688 13 13.4688C11.8782 13.4688 10.9688 14.3782 10.9688 15.5C10.9688 16.6218 11.8782 17.5312 13 17.5312Z" fill="black"/>
</g>
</svg>
