<svg width="24" height="25" viewBox="0 0 24 25" fill="none" xmlns="http://www.w3.org/2000/svg">
<g id="svgexport-1 (1)">
<path id="Vector" d="M6.61867 14.3818C5.69511 13.8279 4.69464 13.4137 3.64979 13.1527C3.00344 12.9911 2.7805 12.1862 3.25157 11.7151L4.81873 10.1479C5.21669 9.74997 5.68915 9.43428 6.20913 9.21891C6.72911 9.00353 7.28642 8.89268 7.84923 8.8927H9.96631L10.3692 8.33883C11.4029 6.91745 12.7582 5.76076 14.3243 4.96324C15.8905 4.16572 17.6231 3.74999 19.3806 3.75H20.1429C20.6162 3.75 21 4.13373 21 4.60712V5.36935C21 7.12686 20.5842 8.85945 19.7867 10.4256C18.9892 11.9917 17.8325 13.347 16.4111 14.3807L16.0379 14.6522L16.218 15.3728C16.3975 16.0907 16.388 16.8429 16.1905 17.5561C15.9929 18.2693 15.6141 18.9192 15.0908 19.4425L13.0349 21.4984C12.5638 21.9695 11.7589 21.7465 11.5973 21.1002C11.3363 20.0553 10.9222 19.0549 10.3682 18.1313C8.90384 18.8535 7.39189 19.4749 5.84289 19.9912C5.17289 20.2146 4.53536 19.5771 4.75873 18.907C5.27505 17.3581 5.89648 15.8462 6.61867 14.3818ZM7.41467 12.8607C7.84004 12.0931 8.29341 11.3413 8.77389 10.6069H7.84906C7.1671 10.6069 6.51307 10.8779 6.03086 11.3601L5.46431 11.9266C6.14486 12.1835 6.79678 12.4966 7.41467 12.8607ZM14.5365 15.7149C13.6778 16.293 12.7946 16.8336 11.8893 17.3353C12.2558 17.9575 12.5683 18.61 12.8233 19.2857L13.8786 18.2304C14.1926 17.9164 14.4199 17.5264 14.5384 17.0985C14.6569 16.6706 14.6626 16.2192 14.5549 15.7885L14.5365 15.7149H14.5365ZM10.9158 15.9145C12.1904 15.2161 13.4192 14.4371 14.5946 13.5822L15.4028 12.9943C16.5925 12.1291 17.5632 10.9976 18.2373 9.69015C18.9115 8.38271 19.2703 6.93568 19.2852 5.46475C17.8143 5.47962 16.3673 5.83845 15.0598 6.51256C13.7524 7.18667 12.6208 8.15734 11.7556 9.34697L11.1676 10.1554C10.3128 11.3308 9.53382 12.5595 8.83543 13.8341C9.60743 14.4442 10.3056 15.1424 10.9158 15.9144V15.9145ZM9.35827 16.7167C8.95532 16.2379 8.51202 15.7947 8.03325 15.3917C7.66067 16.1631 7.31688 16.9488 7.003 17.7471C7.80074 17.4333 8.58638 17.0896 9.35827 16.7167Z" fill="black"/>
</g>
</svg>
